<?xml version="1.0"?>
<svg width="200" height="200" xmlns="http://www.w3.org/2000/svg" xmlns:svg="http://www.w3.org/2000/svg">
 <!-- Created with SVG-edit - https://github.com/SVG-Edit/svgedit-->
 <title>logoMhr</title>
 <g class="layer">
  <title>Layer 1</title>
  <path d="m187.523025,44.763205c-6.400693,7.959789 -33.965206,18.055677 -37.520404,18.055677l-30.215845,0c-5.014776,0 -12.567067,1.101777 -16.122258,3.627626c0.40841,0.404739 0.81682,0.809475 1.211847,1.221701c2.73168,2.840639 9.118985,6.843015 14.769809,6.843015c2.658028,0 4.840696,-0.861938 6.695287,-2.653263c7.887049,-7.547552 11.984571,-8.431977 14.361394,-8.431977c2.818726,0 5.242408,1.446551 6.668515,3.979887c2.678117,4.691926 0.709695,10.830404 -1.298891,15.642253c-4.807218,11.422515 -20.4742,23.766931 -37.460149,23.766931c-0.013388,0 -0.013388,0 -0.026777,0c-2.370136,0 -4.693406,-0.247338 -6.916233,-0.742014l0,24.366545c0,5.561351 6.916233,18.985064 27.899277,18.985064s26.479871,-27.739331 26.479871,-32.513707l0,-33.817843c14.930496,-8.761765 30.209143,-13.528639 37.520404,-29.19338c6.876068,-14.720354 0.348161,-17.096303 -6.045846,-9.136514l-0.000001,-0.000002zm-46.933987,35.421795c5.329449,-12.734165 -0.354848,-12.734165 -10.310747,-3.185413s-24.538235,0.786987 -29.512836,-4.384627c-4.974601,-5.164114 -9.949198,-9.144016 -18.84054,-8.746776c-8.891347,0.397237 -29.861002,-1.206716 -41.95939,-4.384627c-12.085,-3.185413 -32.773444,-22.485267 -34.480746,-17.501043c-1.780945,5.171613 1.412704,8.754263 7.820098,17.501043c6.394002,8.761761 33.978595,20.821364 33.978595,20.821364s0,25.880542 0,36.621008c0,10.755453 19.905098,27.057278 30.209148,27.057278s18.130845,-7.959789 18.130845,-13.536126l0,-33.817843c17.066298,9.968462 39.636115,-3.702577 44.965564,-16.44423l0.00001,-0.000011l-0.000002,0.000002zm-10.712461,-28.413892c11.67659,0 21.150427,-10.598055 21.150427,-23.669492c0,-13.078927 -9.473838,-23.676994 -21.150427,-23.676994s-21.143721,10.598051 -21.143721,23.676994c0,13.071437 9.467136,23.669492 21.143721,23.669492zm-55.724901,0c11.67659,0 21.143726,-10.598055 21.143726,-23.669492c0,-13.078927 -9.467136,-23.676994 -21.143726,-23.676994c-11.683276,0 -21.150422,10.598051 -21.150422,23.676994c0,13.071437 9.460449,23.669492 21.150422,23.669492z" fill="#d4aaff" id="svg_12" stroke="#000000" stroke-dasharray="null" stroke-linecap="null" stroke-linejoin="null" stroke-opacity="0" stroke-width="5"/>
  <text fill="#000000" font-family="Fantasy" font-size="24" id="svg_4" stroke="#000000" stroke-dasharray="null" stroke-linecap="null" stroke-linejoin="null" stroke-width="0" text-anchor="middle" transform="rotate(-23.5885 67.2735 84.6571) matrix(4.14456 0 0 4.33529 -87.0182 -648.609)" x="37.225551" xml:space="preserve" y="178.727037">mh</text>
  <text fill="#7f007f" font-family="Fantasy" font-size="24" id="svg_5" stroke="#000000" stroke-dasharray="null" stroke-linecap="null" stroke-linejoin="null" stroke-width="0" text-anchor="middle" transform="rotate(-23.3253 157.325 48.785) matrix(9.63436 0 0 4.10168 -2519.35 -1026.55)" x="277.828205" xml:space="preserve" y="271.759989">r</text>
  <g id="svg_8"/>
 </g>
</svg>